<?xml version="1.0" encoding="utf-8"?>
<!-- Generator: Adobe Illustrator 17.0.0, SVG Export Plug-In . SVG Version: 6.00 Build 0)  -->
<!DOCTYPE svg PUBLIC "-//W3C//DTD SVG 1.0//EN" "http://www.w3.org/TR/2001/REC-SVG-20010904/DTD/svg10.dtd">
<svg version="1.0" xmlns="http://www.w3.org/2000/svg" xmlns:xlink="http://www.w3.org/1999/xlink" x="0px" y="0px" width="300px"
	 height="138px" viewBox="0 0 300 138" style="enable-background:new 0 0 300 138;" xml:space="preserve">
<style type="text/css">
	.st0{fill:#FFFFFF;}
</style>
<g id="Layer_1">
	<path class="st0" d="M151.6,59.6c0.5,0.1,1,0.1,1.5,0.1c0.5,0.1,1,0.1,1.6,0.2c0.6,0.1,1.1,0.2,1.5,0.4c0.3,0.1,0.6,0.3,1,0.4
		c0.3,0.2,0.7,0.3,1,0.4c0.3,0.2,0.6,0.4,0.8,0.6c0.5,0.7,0.7,1.5,0.7,2.4c-0.3,0.8-0.3,1.4,0,2c0,0.1,0.1,0.2,0,0.2
		c0,0.1,0,0.2,0,0.3c-0.1,0.1-0.1,0.4-0.1,0.7c0.1,0.3,0.1,0.7,0,1c-0.1,0.3-0.2,0.7-0.3,1c-0.2,0.4-0.3,0.9-0.3,1.4
		c0,0.4-0.1,0.9-0.2,1.4c-0.3,1-0.7,2-1.1,3c-0.5,1.1-1,2.3-1.6,3.3c-0.6,1.1-1.1,2.2-1.5,3.3c-0.4,1.3-0.8,2.5-1,3.7
		c-0.3,1.2-0.5,2.4-0.7,3.6c-0.5,2.3-1,4.7-1.5,7.1c-0.5,2.3-0.8,4.7-0.9,7c0,0.5,0,0.9,0,1.3c0.1,0.5,0,0.9-0.1,1.4
		c-0.4,1.2-0.4,2.4,0,3.7c0.3,1.3,1,2.3,2,3c0.2,0.1,0.5,0.1,0.8,0c0.4-0.3,0.6-0.5,0.7-0.6c0.9-0.8,1.6-1.7,2-2.4
		c0.2-0.3,0.3-0.5,0.5-0.7c0.1-0.2,0.2-0.4,0.4-0.6c1-1.5,1.9-3.1,2.6-4.8c0.7-1.6,1.6-3.2,2.6-4.7c1.3-1.9,2.4-3.8,3.3-5.8
		c0.8-2,1.8-4,2.9-6c0.5-0.7,1-1.5,1.4-2.2l0.2-0.3v-5.8c0-1.2-0.1-2.4-0.2-3.6l-0.6-4c-0.2-0.8-0.2-1.6,0-2.3
		c0.1-0.7,0.3-1.5,0.4-2.3c0.1-0.4,0.4-0.6,1-0.6l1.9,0.3c0.6,0.1,1.1,0.3,1.5,0.7c0.4,0.4,0.8,0.8,1.2,1.3c0.1,0.2,0.2,0.4,0.4,0.6
		c0.2,0.2,0.4,0.3,0.6,0.5c0.4,0.5,0.9,0.9,1.4,1.2c0.4,0.4,0.9,0.8,1.4,1.3s0.8,1.1,1.1,1.7c0.3,0.6,0.5,1.2,0.8,1.9
		c0,0.2,0.1,0.5,0.3,0.9c0,0,0.1,0.1,0.2,0.1c0.3-0.5,0.5-1,0.8-1.5c0.2-0.5,0.4-1,0.7-1.4c1.3-2.5,2.8-4.6,4.5-6.4
		c0.9-0.9,1.8-1.6,2.8-2.3c1.1-0.7,2.2-1.1,3.4-1.4c1.5-0.3,2.9-0.1,4.2,0.7c1.3,0.7,2.3,1.8,2.8,3.3c0.5,1.2,0.8,2.5,1.1,3.8
		c0.2,1.3,0.4,2.5,0.6,3.8c0.2,0.6,0.2,1.1,0.2,1.7c-0.1,0.6-0.1,1.1-0.1,1.7c0,0.6,0.1,1.2,0.1,1.7c0.1,0.6,0.1,1.1,0,1.7
		c0,1,0,2.1,0,3.3c-0.1,1.3-0.1,2.5-0.2,3.5c0.2-0.1,0.4-0.2,0.6-0.3c0.2-0.1,0.3-0.2,0.4-0.3c0.6-0.5,1.4-1.1,2.4-1.7
		c1-0.7,2-1.3,3.1-1.9c1.1-0.6,2.1-1.2,3.1-1.8s1.9-1,2.5-1.4c0.5-0.2,0.9-0.6,1.4-0.9c0.4-0.4,0.9-0.5,1.4-0.4
		c-0.1,0.2-0.1,0.3,0,0.5c0.1,0.2,0.1,0.3,0.1,0.3c-0.6,0.3-1,0.7-1.2,1.1c-0.2,0.4-0.8,0.8-1.7,1.3c-0.3,0.5-0.9,1.1-1.7,1.7
		c-0.9,0.6-1.7,1.3-2.6,1.9c-0.9,0.6-1.8,1.2-2.7,1.8c-0.8,0.5-1.5,1-2,1.5c-0.5,0.4-1,0.8-1.6,1.3c-0.5,0.4-1,0.9-1.5,1.4
		s-0.9,1.1-1,2c-0.4,1-0.6,2-0.7,3c-0.2,1-0.6,2-1.2,2.8c-0.3,0.5-0.5,1-0.6,1.5c-0.2,0.5-0.4,1-0.7,1.4c-0.2,0.4-0.4,0.8-0.6,1.1
		c-0.2,0.3-0.6,0.6-1.1,0.7c-0.4,0.5-0.9,0.9-1.6,1.2c-0.7,0.3-1.1,0.8-1.4,1.6c-0.3,0.2-0.6,0.6-0.9,0.9c-0.2,0.4-0.6,0.6-1.1,0.7
		c-0.1,0-0.2,0.1-0.2,0.1c0,0.1-0.1,0.2-0.2,0.2c-0.1,0.3-0.3,0.5-0.5,0.7c-0.2,0.1-0.3,0.4-0.4,0.6c-0.8-0.3-1.4-0.7-1.9-1.1
		c-0.6-0.4-1.1-0.9-1.6-1.4c-0.4-0.3-0.6-0.6-0.6-1.1c-0.1-0.4-0.1-0.8,0.1-1.2c0.3-2.7,1.3-4.9,3-6.6c1.4-1.3,2.1-2.8,2.1-4.6
		c0.2-1,0.4-2.2,0.6-3.3c0.2-1.1,0.4-2.2,0.5-3.3c0.2-1.3,0.2-2.7,0.3-4c0-1.3,0.1-2.6,0.2-3.9c0.1-2,0.2-3.9,0.3-5.7
		c0.1-1.9,0.2-3.8,0.3-5.7v-1.1c0-0.4-0.1-0.8-0.2-1.1c-0.6,0.1-1.1,0.3-1.5,0.6c-0.3,0.2-0.7,0.6-1,0.9c-1,1.2-2,2.5-2.8,3.9
		s-1.5,2.8-2.1,4.2c-0.3,0.8-0.7,1.5-1.1,2.2c-0.4,0.8-0.8,1.5-1.3,2.2c-0.4,0.7-0.8,1.5-1.1,2.2c-0.3,0.7-0.5,1.5-0.6,2.3
		c-0.2,1.4-0.3,2.8-0.5,4.1c-0.2,1.4-0.4,2.8-0.7,4.1c-0.1,0.5-0.2,1.1-0.2,1.7s-0.1,1.1-0.1,1.7l-0.9,4.3c0.3,1.3,0.3,2.4,0.1,3.5
		s-0.5,2.2-1,3.5c-0.2,1.2-0.2,2.4-0.1,3.7c0.2,1.2,0.3,2.4,0.2,3.6c0,0.5-0.1,0.9-0.1,1.2c0,0.4-0.1,0.8-0.2,1.2
		c-0.1,1-0.2,2.1-0.1,3.2v5.2c0,0.6-0.1,1.2-0.1,1.9c0,0.3-0.1,0.6-0.2,1c-0.1,0.3-0.1,0.7-0.2,1c-0.1-0.1-0.1-0.2-0.1-0.3
		c0,0,0-0.1-0.2-0.2c-0.1,0.4-0.2,0.8-0.3,1.2c-0.1,0.3-0.3,0.7-0.4,1c-0.2,0.3-0.2,0.4-0.2,0.4c-0.5,0.3-0.7,0.7-0.7,1.1
		c-0.1,0.4-0.2,0.8-0.3,1.3c0,0.3-0.1,0.6-0.2,0.8s-0.3,0.4-0.7,0.5c-0.1,0-0.2,0.1-0.2,0.2c0,0.1-0.1,0.2-0.2,0.3
		c-0.8,0.9-1.7,0.9-2.6,0.1c-0.2-0.2-0.5-0.5-0.7-0.7c-0.2-0.2-0.4-0.5-0.6-0.8c-0.1-0.1-0.1-0.2-0.1-0.3c0-0.7,0.1-1.3,0.1-1.9
		c0-0.6,0-1.3,0-2c0.1-0.8,0.2-1.7,0.2-2.5c0.1-0.9,0.1-1.8,0.1-2.6c0.1-2.4,0.1-4.8,0-7.2l-0.3-12.4v-7.1c0-1.5-0.1-3-0.1-4.5
		c-0.1-1.5-0.1-3-0.1-4.6c-1,2-0.5,1-1.7,3c-0.5,0.9-0.8,1.8-1,2.8c-0.2,0.9-0.6,1.9-1.2,2.7c-0.5,0.7-0.9,1.4-1,2.1
		c-0.2,0.7-0.5,1.5-0.8,2.2c-0.1,0.3-0.2,0.7-0.4,1.1c-0.1,0.3-0.3,0.7-0.6,1c-0.5,0.6-0.9,1.3-1.3,2c-0.4,0.7-0.7,1.4-1,2.2
		c-0.3,0.6-0.7,1.2-1.1,1.8c-0.4,0.5-0.9,1-1.6,1.5c-0.6,0.4-1.3,1-1.8,1.5c-0.6,0.6-1.3,1.1-2.2,1.4c-0.1,0-0.2,0-0.2,0
		s-0.1,0.1-0.2,0.1c-1.8,0.1-3.4-0.1-5-0.7c-1.1-0.3-2-0.9-2.8-1.8c-0.7-0.8-1.2-1.6-1.6-2.5c-0.4-0.9-0.8-1.8-1.1-2.8
		c0-0.2-0.1-0.5-0.1-0.7c0-0.3,0-0.5-0.1-0.8c-0.1-0.6-0.2-1.1-0.2-1.7s-0.1-1.2-0.2-1.8v-0.4c0-0.9,0-1.8-0.1-2.7
		c0-1,0-1.9,0.1-2.8c0.2-4.2,0.9-8.3,2.1-12.2c1.2-4,2.5-7.9,4-11.8c0.3-0.9,0.7-1.8,1-2.7c0.4-0.9,0.7-1.7,1.1-2.6
		c0.2-0.6,0.4-1.3,0.5-2c0.1-0.7,0.3-1.3,0.5-2c-0.2-0.1-0.3-0.1-0.5-0.1c-0.3,0.1-0.5,0.2-0.5,0.3c-1.9,1.5-3.6,3.1-5.2,4.9
		c-1.6,1.7-3.3,3.4-5,4.9c-1.2,1.1-2.1,2.2-2.8,3.5c-0.8,1.4-1.5,2.7-2.1,4c-0.9,1.4-1.7,2.8-2.5,4.2c-0.8,1.5-1.6,2.9-2.5,4.3
		c-0.2,0.1-0.3,0.3-0.4,0.5c-0.3,0.7-0.6,1.3-0.9,1.9c-0.4,0.7-0.7,1.3-0.9,2c-0.1,0.1-0.1,0.2-0.2,0.3c-0.1,0.1-0.1,0.3-0.2,0.4
		c-0.2,0.3-0.3,0.6-0.5,0.9c-0.2,0.4-0.4,0.7-0.5,1.1c-0.1,0.5-0.2,0.9-0.2,1.3c0,0.2-0.1,0.4-0.1,0.6c-0.1,0.2-0.1,0.4-0.1,0.6v0.9
		c-0.3,0.1-0.5,0.1-0.8,0c-0.3-0.1-0.6,0-0.9,0.3c0.1,0.2,0.1,0.3,0.1,0.4c0,0.1,0.1,0.3,0.1,0.5c-0.2,0-0.4,0-0.5,0
		c-0.4,0-0.7-0.1-0.9-0.3c-0.2-0.1-0.4-0.3-0.6-0.4s-0.4-0.2-0.6-0.4c-0.6-0.2-1.1-0.7-1.5-1.6c-0.3-1.1-0.5-2.4-0.5-3.6
		c-0.1-1.3,0-2.4,0.1-3.5c0.2-1.2,0.4-2.3,0.7-3.6c0.1-0.3,0.1-0.6,0.2-0.9c0.1-0.3,0.2-0.7,0.3-1c0.6-1.8,1.1-3.6,1.7-5.4
		c0.5-1.8,1-3.6,1.5-5.4c0.1-0.1,0.1-0.2,0.1-0.3c0,0,0-0.1,0.1-0.3c0.3-0.8,0.6-1.7,0.8-2.6c0.2-0.9,0.4-1.8,0.5-2.6
		c0-0.4,0.1-0.6,0.2-0.9c0-0.2,0-0.5-0.1-0.8c-0.2,0.2-0.3,0.3-0.3,0.2c-0.2,0.2-0.4,0.4-0.6,0.8c-0.2,0.4-0.5,0.8-1,1
		c-0.7,0.5-1.4,1.3-2,2.3c-0.6,1.1-1.1,2-1.7,2.6c-0.6,0.9-1.3,1.9-1.9,2.8c-0.6,0.9-1.1,1.9-1.6,2.9s-0.9,2-1.3,3
		c-0.4,1-0.9,2-1.5,3c-0.4,0.7-0.7,1.5-1,2.2c-0.3,0.8-0.7,1.6-1,2.4c0,0.1-0.1,0.3-0.1,0.5c-0.1,0.2-0.1,0.3-0.1,0.5
		c0,0.6-0.1,1.1-0.4,1.6c-0.2,0.4-0.5,0.9-0.7,1.4c-0.1,0.3-0.3,0.6-0.5,0.8c-0.2,0.3-0.3,0.6-0.4,0.9c-0.3,0.6-0.7,1.1-1.1,1.6
		c-0.5,0.3-0.9,0.7-1.3,1.2c-0.2,0.3-0.5,0.6-0.8,0.8c-0.2,0.2-0.5,0.4-0.8,0.6c-0.4,0.3-0.8,0.3-1.1,0c-0.1-0.1-0.2-0.1-0.3-0.1
		c-0.1-0.1-0.2-0.1-0.4-0.2c-0.3,0-0.6-0.1-0.9-0.4c-0.2-0.3-0.5-0.4-0.9-0.4h-0.2c-0.6-0.1-1.1-0.3-1.4-0.7
		c-0.2-0.5-0.4-0.9-0.5-1.4v-2.2c0-1,0-2,0.1-2.9c0-1,0-2,0-3l0.1-0.8l-0.2,0.4c-0.6,1.4-1.2,2.9-2,4.5c-0.7,1.5-1.5,3-2.5,4.5
		c-0.9,1.4-2,2.7-3.2,3.9c-1.1,1.1-2.5,2-4,2.5c-0.7,0.3-1.6,0.3-2.7,0.2c-1.1-0.1-2-0.4-2.6-1c-0.3-0.2-0.6-0.6-0.8-1
		c-0.6-1-1-2-1.1-3c-0.1-1.1-0.1-2.2-0.1-3.3c0.1-0.8,0.1-1.7,0.2-2.5c0.1-0.9,0.2-1.7,0.3-2.6v-0.8c-0.1,0.1-0.3,0.2-0.4,0.3
		c-0.1,0.1-0.2,0.2-0.3,0.3c-0.6,0.5-1.2,1-1.8,1.4c-0.7,0.4-1.4,0.6-2.2,0.6c-0.6,0.1-1.1,0.2-1.6,0.4c-0.6,0.1-1.1,0.2-1.6,0.3
		c-1.1,0-2-0.1-2.9-0.4c-0.9-0.3-1.7-0.9-2.4-1.9c-0.7-1.2-0.4-0.6-0.9-1.9c-0.2,0.3,0,0.1-0.3,0.5c-0.2,0.3-0.3,0.5-0.5,0.9
		c-0.1,0.1-0.2,0.2-0.3,0.3c-0.4,0.3-0.7,0.6-0.9,0.9c-0.3,0.4-0.5,0.7-0.8,1l-0.1,0.1c-0.4,0.8-1,1.4-1.6,1.8
		c-0.6,0.5-1.2,1.1-1.8,1.7l-0.8,1.1c-0.5,0.6-1,1.3-1.5,1.8c-0.6,0.6-1.2,1.1-2,1.6c-0.8,0.5-1.7,1-2.6,1.5
		c-0.8,0.5-1.8,0.9-2.8,1.2c-0.8,0.2-1.6,0.5-2.4,0.7c-0.8,0.2-1.6,0.4-2.4,0.5c-0.6,0-1.1-0.1-1.4-0.2c-0.5-0.3-0.8-0.4-1.1-0.5
		c-0.9-0.4-1.7-1-2.4-1.7c-0.3-0.4-0.4-0.6-0.5-0.6c-0.6-0.6-1.1-1.2-1.4-1.9c-0.3-0.6-0.5-1.3-0.8-2.1l-0.2-0.3
		c-0.1-0.7,0-0.4-0.2-0.9c-0.2-0.6-0.3-1.3-0.3-2c-0.1-0.8-0.1-1.5-0.1-2.2v-2.1C39,90.1,38.9,89.5,39,89s0.1-1,0.2-1.5
		c0.1-0.3,0.2-0.6,0.2-1s0-0.7,0.1-1c0-0.9,0.1-1.9,0.2-2.9c0.2-1.1,0.4-2.2,0.7-3.2c0.3-1.1,0.5-2.1,0.6-3.2
		c0.1-0.1,0.1-0.2,0.1-0.2c0-0.1,0-0.1,0.1-0.3c0.1-0.5,0.2-1,0.4-1.5c0.2-0.6,0.3-1.1,0.6-1.6c0.2-0.5,0.5-1.1,0.7-1.6
		c0.3-0.6,0.5-1.1,0.7-1.6c0.3-0.4,0.5-0.9,0.7-1.2c0.2-0.4,0.5-0.8,0.7-1.2c0.1-0.3,0.2-0.4,0.2-0.5c0.3-0.5,0.6-0.9,1-1.2
		c0.4-0.3,0.8-0.7,1.3-1c0.6-0.3,1.1-0.5,1.7-0.8c0.5-0.2,1.1-0.5,1.7-0.7c0.3-0.1,0.6-0.2,1-0.3c0.3,0,0.7-0.1,1-0.3
		c0.3,0,0.7-0.1,1-0.1c0.4,0,0.7-0.1,1-0.1c0.3-0.1,0.6-0.1,1.1-0.1c1-0.1,1.9-0.1,2.7,0.2c0.9,0.2,1.7,0.5,2.6,1
		c0.1,0,0.2,0.1,0.4,0.2c0.1,0.1,0.3,0.2,0.4,0.3c0.3,0.2,0.5,0.5,0.5,0.8c0,0.2,0.1,0.4,0.1,0.6c0.1,0.2,0.2,0.3,0.2,0.5
		c0.1,0.3,0.3,0.6,0.3,0.9c0.1,0.3,0.1,0.7,0.1,1c-0.1,0.2-0.1,0.3,0,0.5c0,0.5-0.1,0.9-0.2,1.3c-0.2,0.4-0.4,0.8-0.5,1.2
		c-0.3,0.3-0.7,0.6-1.2,0.7c-0.5,0.2-0.9,0.2-1.2,0.1c-0.2-0.1-0.3-0.3-0.3-0.5c0.1-0.3,0.1-0.6,0.1-0.9c0-0.3,0.1-0.6,0.2-0.9
		c0.1-0.4,0.1-0.7,0.1-1.1c-0.1-0.3-0.1-0.6-0.2-1c0-0.3-0.1-0.6-0.4-0.9c-0.2-0.1-0.4-0.3-0.6-0.4c-0.2-0.2-0.4-0.3-0.7-0.4
		l-0.5-0.2c-0.8-0.4-0.5-0.2-1.1-0.6c-0.3-0.1-0.6-0.1-0.9,0c-0.2,0.2-0.4,0.4-0.7,0.5c-0.2,0.2-0.4,0.4-0.6,0.5
		c-0.3,0.2-0.5,0.4-0.6,0.7c-0.4,1-0.9,2-1.6,2.8c-0.6,0.7-1.1,1.5-1.3,2.4c-0.1,0.5-0.3,0.9-0.5,1.3c-0.1,0.4-0.3,0.8-0.4,1.3
		c-0.1,0.3-0.2,0.5-0.2,0.7c-0.1,0.6-0.2,1.2-0.4,1.7c-0.1,0.6-0.3,1.2-0.5,1.8c-0.1,0.4-0.2,0.8-0.4,1.1c-0.1,0.4-0.2,0.9-0.2,1.3
		c0,0.1-0.1,0.3-0.1,0.4c-0.1,0.2-0.1,0.4-0.2,0.5c-0.3,0.8-0.5,1.7-0.6,2.6c-0.1,0.5-0.2,1-0.3,1.4c-0.1,0.5-0.2,1-0.3,1.5
		c-0.1,0-0.1,0.1-0.1,0.3c0,0.7-0.1,1.3-0.1,1.9s-0.1,1.3-0.1,1.9c0,0.3,0,0.7,0.1,1.1v0.5c-0.1,0.4-0.1,0.7,0,1.1
		c0.1,0.4,0.1,0.7,0.1,1.1v1c-0.1,0.7,0,1.4,0.2,1.9c0.1,0.2,0.2,0.4,0.2,0.6c0.1,0.2,0.1,0.4,0.3,0.7c0,0.2,0.1,0.5,0.1,0.7
		c0.1,0.3,0.2,0.5,0.3,0.8c0.2,0.5,0.5,0.9,0.8,1.2c0.6,0.5,1.2,0.6,1.8,0.4c0.3-0.1,0.6-0.2,0.8-0.2c0.8-0.1,1.5-0.3,2.2-0.6
		c0.8-0.3,1.5-0.7,2.2-1.1c0.3-0.2,0.6-0.4,0.8-0.7c0.3-0.2,0.5-0.5,0.8-0.8c0.3-0.4,0.7-0.8,1.1-1.2l1.1-1.1c0.4-0.5,0.9-1,1.4-1.5
		s1-1,1.5-1.5c0.6-0.7,1.3-1.4,2-2.2c0.6-0.7,1.3-1.5,1.9-2.3c0-0.1,0.1-0.1,0.1-0.2c0,0,0,0,0.1-0.1c1-1.2,0.6-0.6,1.3-1.6
		c-0.1-2.5-0.1-1.3,0.2-3.5c0.1-0.5,0.2-1,0.2-1.4c0.1-0.4,0.1-0.9,0.3-1.3l0.8-2.8c0.2-0.5,0.4-1.1,0.6-1.6
		c0.2-0.6,0.4-1.1,0.5-1.7c0.6-2.2,1.6-4.1,3.2-5.9c0.4-0.5,0.9-1.1,1.4-1.7c0.4-0.5,0.8-0.9,1.3-1.2c0.5-0.3,1.1-0.6,1.6-0.7
		l2.2-0.9c0.7-0.2,1.3-0.3,2-0.4c0.6,0,1.2-0.1,1.9-0.2c0.4,0,0.6,0,0.8-0.1c0.6-0.2,1.1-0.2,1.6-0.2s1.1,0.1,1.6,0.2
		c0.4,0.1,0.8,0.2,1.1,0.5c0.4,0.3,0.7,0.6,1,1c0.2,0.3,0.4,0.6,0.6,0.8c0.2,0.3,0.4,0.6,0.5,0.9c0.5,1,0.4,1.9-0.4,2.7
		c-0.2,0.1-0.5,0.2-0.9,0.2c-0.2,0.1-0.4-0.1-0.5-0.4c-0.1-0.8-0.4-1.4-0.8-1.9c-0.5-0.5-0.9-1-1.4-1.6L87,65.4
		c-1.1-0.3-2.1-0.4-3.1-0.2c-0.8,0.2-1.6,0.5-2.3,0.9c-0.8,0.3-1.4,0.9-1.9,1.7c-0.6,1.2-1.2,2.4-1.6,3.7s-0.9,2.6-1.4,3.8l-1.2,3.6
		c-0.5,1.5-0.9,2.9-1.2,4.3c-0.2,1.4-0.2,2.9,0.2,4.4c0.2,0.8,0.7,1.5,1.7,2.1c1,0.5,1.8,0.6,2.6,0.2c1.1-0.4,2-1.3,2.9-2.7
		c0.9-1.3,1.6-2.5,2.1-3.4c0.2-0.4,0.3-0.7,0.3-1.1c0.1-0.3,0.2-0.7,0.3-1c0.1-0.4,0.2-0.8,0.3-1.2c0-0.4,0.1-0.7,0.2-1
		c0.2-0.6,0.3-1.1,0.5-1.7c0.2-0.5,0.4-1.1,0.6-1.6c0.2-0.6,0.4-1.2,0.6-1.7c0.2-0.6,0.4-1.2,0.5-1.8c0.3-0.9,0.8-1.5,1.6-1.5
		c0.3-0.1,0.5-0.2,0.8-0.3c0.3,0,0.6,0,0.9-0.1c0.7-0.1,1.2,0.3,1.3,0.9l0.3,0.6c0.1,0.5,0.1,0.9-0.2,1.3c-0.2,0.4-0.2,0.8,0,1.3
		c0.1,0.3,0.1,0.5,0.1,0.7c0,0.2-0.1,0.4-0.1,0.7c0,1-0.1,2-0.4,3.2c-0.2,1.2-0.5,2.3-0.7,3.2c-0.1,1.1-0.3,2.1-0.3,3
		c-0.1,0.8-0.2,1.8-0.4,2.9c-0.1,0.3-0.2,0.7-0.3,1c0,0.4-0.1,0.7-0.1,1.1c-0.2,0.6-0.2,1.3-0.3,2c-0.1,0.7-0.2,1.4-0.3,2.2
		c0,0.3-0.1,0.6-0.1,0.8c0,0.3-0.1,0.6-0.1,0.9c0,0.2,0,0.5-0.1,1.1c0,0.5,0,1,0,1.5s0.2,0.9,0.5,1.2c0.2,0.3,0.7,0.2,1.4-0.1
		c0.3-0.1,0.9-0.6,1.6-1.3c0.8-0.7,1.3-1.2,1.6-1.5c0.4-0.7,1-1.5,1.7-2.5c0.6-1,1.2-1.9,1.5-2.7c0.8-1.5,1.6-3.3,2.5-5.4
		c1-2.1,1.8-3.9,2.5-5.4c0.1-0.3,0.2-0.5,0.2-0.8c0-0.2,0-0.2,0.1-0.2c0.2-1.5,0-0.5,0.5-3c0.1-1.1,0.3-2.2,0.3-3.4
		c0.1-1.1,0.3-2.2,0.6-3.3c0.3-1.2,0.5-2.4,0.8-3.7c0.2-1.2,0.5-2.5,0.7-3.7c0.1-0.3,0.1-0.7,0.1-1.1v-1.1c0-0.3,0.1-0.5,0.5-0.5
		c0.2-0.1,0.5-0.1,0.8,0c0.2,0,0.3,0,0.5,0c0.1,0.1,0.3,0.1,0.5,0.1c0.7,0.1,1.2,0.4,1.6,0.8c0.2,0.2,0.5,0.4,0.8,0.5
		c0.3,0.2,0.5,0.5,0.5,0.9v1.6c0,0.6,0.2,1.2,0.5,1.7c0.5,0.6,0.7,1.2,0.6,2c-0.1,0.7-0.3,1.4-0.4,2.1c-0.2,0.9-0.4,1.9-0.4,2.9
		c0,0.9-0.1,1.9-0.2,2.9c-0.1,1.1-0.2,2.2-0.3,3.3c0,1.1,0,2.3-0.1,3.4c0,0.2-0.1,0.5-0.2,1c-0.1,0.3-0.2,0.7-0.2,1.2v1.7
		c0.1-0.2,0.2-0.2,0.2-0.2l0.1-0.1c0.3-0.5,0.5-1,0.7-1.5s0.5-0.9,0.8-1.4c0.3-0.5,0.5-1,0.7-1.4c0.3-0.4,0.5-0.8,0.8-1.3
		c0.6-0.8,1.1-1.7,1.6-2.5c0.4-0.9,0.9-1.8,1.4-2.7c0.2-0.3,0.4-0.6,0.6-0.9c0.1-0.4,0.4-0.7,0.6-1l1.2-1.8c0.2-0.4,0.4-0.6,0.6-0.8
		l2.5-2.8c0.3-0.4,0.7-0.8,1.2-1.1c0.4-0.3,0.8-0.7,1.3-1c0.6-0.3,1.1-0.6,1.6-1.1c0.3-0.2,0.7-0.3,1.2-0.3h0.4c0.4,0,0.8,0,1.2-0.1
		c0.4-0.1,0.8,0,1.3,0.3l1.1,0.5c0.3,0.2,0.7,0.4,1,0.7c0.3,0,0.6,0.2,1,0.5c0,0.5,0,1,0,1.3c0,0.2,0.1,0.4,0.2,0.6
		c0.1,0.2,0.1,0.4,0.1,0.7c0.1,0.5,0.2,1,0.2,1.6c-0.1,0.5-0.2,1.1-0.3,1.6c0,0.7-0.1,1.3-0.2,1.9c0,0.6-0.1,1.2-0.2,1.8
		c-0.2,0.5-0.2,0.9-0.3,1.3c0,0.5-0.1,0.9-0.2,1.3c0,0.2,0,0.4-0.2,0.5c-0.1,0.2-0.3,0.6-0.4,1.3c0,0.1-0.1,0.4-0.2,0.9
		c0,0.2,0,0.4-0.1,0.5c0.2,0,0.3-0.1,0.5-0.3c0.5-0.8,1-1.7,1.6-2.6c0.5-0.9,1-1.8,1.5-2.6c0.1-0.2,0.2-0.3,0.2-0.4
		c0.1-0.1,0.2-0.3,0.3-0.4c0.7-0.8,1.3-1.6,1.8-2.4c0.6-0.8,1.2-1.6,1.8-2.5c0.2-0.1,0.2-0.3,0.3-0.4c0.1-0.2,0.2-0.3,0.3-0.4
		c0.8-1.5,1.9-2.9,3.3-4.2c0.5-0.5,1-1,1.5-1.6c0.6-0.5,1.1-1,1.6-1.5c1.1-1,2.1-1.8,3.1-2.3l0.7-0.3c0.1-0.1,0.3-0.2,0.5-0.3
		l0.6-0.3H151.6z M189.6,103.1c-0.1,0.1-0.2,0.2-0.3,0.2c0,0-0.1,0.1-0.2,0.2l-1.3,3c0,0.3,0,0.6,0.1,0.7c0,0.1,0,0.2,0.1,0.2v0.1
		c0.7-0.4,1.2-1.1,1.5-2S189.8,103.8,189.6,103.1z M290.3,38.7h-38.7v9.7h38.7V38.7z M241.9,38.7h-38.7v9.7h38.7V38.7z M183.9,38.7
		h-38.7v9.7h38.7V38.7z M87.1,38.7h-9.7v9.7h9.7V38.7z M125.8,38.7h-9.7v9.7h9.7V38.7z M67.7,19.4h-9.6v29h9.6V19.4z M38.5,0H0v48.1
		h9.6v-9.6h28.9v-9.6H9.6V9.6h28.9V0z M300,29h-9.7v9.7h9.7V29z M203.2,0h-9.7v38.7h9.7V0z M145.2,9.7h-9.7v29h9.7V29h29v-9.6h-29
		V9.7z M96.8,29h-9.7v9.7h9.7V29z M116.1,29h-9.6v9.7h9.6V29z M290.3,19.4h-29V29h29V19.4z M106.5,19.4h-9.7V29h9.7V19.4z M48.1,9.6
		h-9.6v19.3h9.6V9.6z M261.3,9.7h-9.7v9.7h9.7V9.7z M183.9,9.7h-9.7v9.7h9.7V9.7z M96.8,9.7h-9.7v9.7h9.7V9.7z M116.1,9.7h-9.6v9.7
		h9.6V9.7z M300,0h-38.7v9.7H300V0z M174.2,0h-29v9.7h29V0z M87.1,0h-9.7v9.7h9.7V0z M125.8,0h-9.7v9.7h9.7V0z M67.7,0h-9.6v9.7h9.6
		V0z"/>
</g>
<g id="Layer_2">
	<path class="st0" d="M222.6,67c0.4-1.1,1.2-1.7,2.3-1.8c3.8-0.4,7.5-0.3,11.3,0.3c5.4,1,10.4,3,14.9,6.2c3.8,2.6,7,5.8,9.6,9.7
		c1.7,2.4,3,5,4.1,7.7c1,2.4,1.6,4.9,2,7.5c0.2,1.3-0.8,2.6-2,2.9c-1.7,0.3-3.1-0.4-3.4-1.9c-0.4-1.6-0.7-3.2-1.2-4.8
		c-0.5-1.5-1.1-2.8-1.7-4.2c-1-2.3-2.4-4.4-4-6.3c-1.9-2.3-4.1-4.3-6.6-6.1c-3-2.1-6.3-3.6-9.9-4.6c-3.6-0.9-7.2-1.3-10.9-1
		c-0.6,0.1-1.2,0.1-1.8,0.1C223.2,70.9,221.9,68.9,222.6,67z"/>
	<path class="st0" d="M223.6,77.3c0.4-1.2,1.4-1.9,2.9-2c2.6-0.2,5.2-0.2,7.8,0.3c2.9,0.6,5.7,1.5,8.3,2.9c3.7,2,6.8,4.7,9.2,8.1
		c1.9,2.7,3.4,5.6,4.2,8.8c0.2,0.9,0.5,1.8,0.6,2.8c0.3,1.7-0.6,2.9-2.4,3.2c-1.5,0.2-2.8-0.8-3.1-2.4c-0.6-3.8-2.2-7.2-4.6-10.2
		c-1.9-2.4-4.3-4.3-7-5.6c-2.8-1.4-5.7-2.2-8.8-2.3c-1.4,0-2.8,0.1-4.2,0.2C224.5,81,223.1,79.3,223.6,77.3z"/>
	<path class="st0" d="M234.9,86.3c2.5,0.8,4.7,2.2,6.6,4c1.8,1.8,3.2,3.9,4,6.2c0.5,1.2,0.7,2.6,0.9,3.9c0.2,1.1-0.6,2.2-1.7,2.6
		c-1.2,0.5-2.6,0.2-3.2-0.7c-0.3-0.4-0.4-0.9-0.5-1.3c-0.8-4.1-2.9-7.2-6.7-9c-2-1-4.1-1.2-6.3-0.9c-2.2,0.3-3.6-1.1-3.4-3.3
		c0.1-0.9,1-1.9,1.8-2.1c2.2-0.5,4.5-0.4,6.7,0.1C233.7,86,234.3,86.1,234.9,86.3z"/>
	<path class="st0" d="M228.6,106.8c-3-1.1-4.8-4.3-3.6-7.6c1.1-3,4.2-4.5,7.2-3.7c3.6,1,4.9,4.6,4.1,7.3
		C235.2,106.4,231.6,107.9,228.6,106.8z"/>
</g>
</svg>
