<?xml version="1.0" encoding="utf-8"?>
<!-- Generator: Adobe Illustrator 17.0.0, SVG Export Plug-In . SVG Version: 6.00 Build 0)  -->
<!DOCTYPE svg PUBLIC "-//W3C//DTD SVG 1.0//EN" "http://www.w3.org/TR/2001/REC-SVG-20010904/DTD/svg10.dtd">
<svg version="1.0" id="Layer_1" xmlns="http://www.w3.org/2000/svg" xmlns:xlink="http://www.w3.org/1999/xlink" x="0px" y="0px"
	 width="263.2px" height="153.7px" viewBox="0 0 263.2 153.7" style="enable-background:new 0 0 263.2 153.7;" xml:space="preserve"
	>
<style type="text/css">
	.st0{fill:#929597;}
	.st1{fill:#E72C36;}
	.st2{fill:#FFFFFF;}
	.st3{opacity:0.25;}
	.st4{clip-path:url(#SVGID_2_);}
</style>
<g>
	<polygon class="st0" points="206,151.9 206,146.8 207,146.8 207,150.9 211,150.9 211,151.9 	"/>
</g>
<g>
	<polygon class="st0" points="212,151.9 212,146.8 217.1,146.8 217.1,147.8 213.1,147.8 213.1,148.8 217.1,148.8 217.1,149.9 
		213.1,149.9 213.1,150.9 217.1,150.9 217.1,151.9 	"/>
</g>
<g>
	<path class="st0" d="M218.1,151.9v-5.1h1v3h1v1h-1v1H218.1z M220.2,148.8h1v1h-1V148.8z M221.2,147.8h1v1h-1V147.8z M222.2,146.8h1
		v1h-1V146.8z"/>
</g>
<g>
	<polygon class="st0" points="224.2,151.9 224.2,146.8 229.3,146.8 229.3,147.8 225.2,147.8 225.2,148.8 229.3,148.8 229.3,149.9 
		225.2,149.9 225.2,150.9 229.3,150.9 229.3,151.9 	"/>
</g>
<g>
	<polygon class="st0" points="230.3,151.9 230.3,146.8 231.3,146.8 231.3,150.9 235.4,150.9 235.4,151.9 	"/>
</g>
<g>
	<path class="st0" d="M238.4,147.8h1v1h-1V147.8z M239.4,146.8h3v1h-3V146.8z M239.4,151.9v-1h1v-1h1v1h2v1H239.4z M241.4,148.8h1v1
		h-1V148.8z M242.5,147.8h1v1h-1V147.8z"/>
</g>
<g>
	<path class="st1" d="M227.8,126.5h0.5v0.5h-0.5V126.5z M227.8,128h2v0.5h-2V128z M228.3,126h2v0.5h-2V126z M228.3,127h1.5v0.5h-1.5
		V127z M229.8,127.5h0.5v0.5h-0.5V127.5z"/>
</g>
<g>
	<polygon class="st1" points="231.9,128.5 231.9,126.5 230.9,126.5 230.9,126 233.4,126 233.4,126.5 232.4,126.5 232.4,128.5 	"/>
</g>
<g>
	<path class="st1" d="M233.9,128h0.5v0.5h-0.5V128z M235.9,128.5V128h-1.5v-0.5h0.5V127h0.5v0.5h0.5V127h-0.5v-0.5h0.5V126h0.5v2.5
		H235.9z"/>
</g>
<g>
	<path class="st1" d="M236.9,126.5h0.5v1.5h-0.5V126.5z M237.5,126h2v0.5h-2V126z M237.5,128.5V128h1.5v-0.5h-0.5V127h1v1.5H237.5z"
		/>
</g>
<g>
	<polygon class="st1" points="240,128.5 240,126 242.5,126 242.5,126.5 240.5,126.5 240.5,127 242.5,127 242.5,127.5 240.5,127.5 
		240.5,128 242.5,128 242.5,128.5 	"/>
</g>
<g>
	<path class="st0" d="M261,107.8h-52.8H206v2.2v30.5v2.2h2.2H261h2.2v-2.2V110v-2.2H261z M261,140.5h-8.9v-11.1h-2.2v11.1h-30.5
		v-11.1h-2.2v11.1h-8.9V110h8.9v11.1h2.2V110h30.5v11.1h2.2V110h8.9V140.5z"/>
</g>
<g>
	<polygon class="st2" points="214.5,134.5 213.9,134.5 213.9,135.1 213.9,135.5 213.5,135.5 212.9,135.5 212.9,136.1 212.9,136.5 
		212.5,136.5 212.5,136.5 211.9,136.5 211.9,136.5 211.9,137.1 211.9,137.5 211.5,137.5 210.9,137.5 210.9,138.1 210.9,139 
		211.5,139 211.5,138.1 211.9,138.1 211.9,138.1 212.5,138.1 212.5,138.1 212.5,138.1 212.5,137.1 212.9,137.1 213.5,137.1 
		213.5,137.1 213.5,137.1 213.5,136.1 213.9,136.1 214.5,136.1 214.5,136.1 214.5,135.1 215.5,135.1 215.5,134.5 	"/>
</g>
<g>
	<polygon class="st1" points="211.2,134.9 211,135.1 211.2,135.3 211,135.5 211.2,135.7 211.4,135.5 211.5,135.7 211.7,135.5 
		211.9,135.7 212.1,135.5 211.9,135.3 211.7,135.1 211.5,134.9 211.4,134.7 211.2,134.6 211,134.7 	"/>
</g>
<g>
	<polygon class="st2" points="258,134.5 257.4,134.5 257.4,135.1 257.4,135.5 257,135.5 256.4,135.5 256.4,136.1 256.4,136.5 
		256,136.5 256,136.5 255.4,136.5 255.4,136.5 255.4,137.1 255.4,137.5 255,137.5 254.4,137.5 254.4,138.1 254.4,139 255,139 
		255,138.1 255.4,138.1 255.4,138.1 256,138.1 256,138.1 256,138.1 256,137.1 256.4,137.1 257,137.1 257,137.1 257,137.1 257,136.1 
		257.4,136.1 258,136.1 258,136.1 258,135.1 259,135.1 259,134.5 	"/>
</g>
<g>
	<polygon class="st1" points="254.6,134.9 254.5,135.1 254.6,135.3 254.5,135.5 254.6,135.7 254.8,135.5 255,135.7 255.2,135.5 
		255.4,135.7 255.6,135.5 255.4,135.3 255.2,135.1 255,134.9 254.8,134.7 254.6,134.6 254.5,134.7 	"/>
</g>
<g>
	<path class="st1" d="M223.4,122.5h0.5v0.5h-0.5V122.5z M223.4,124h2v0.5h-2V124z M223.9,122h2v0.5h-2V122z M223.9,123h1.5v0.5h-1.5
		V123z M225.4,123.5h0.5v0.5h-0.5V123.5z"/>
</g>
<g>
	<polygon class="st1" points="226.4,124.5 226.4,122 228.9,122 228.9,122.5 226.9,122.5 226.9,123 228.9,123 228.9,123.5 
		226.9,123.5 226.9,124 228.9,124 228.9,124.5 	"/>
</g>
<g>
	<path class="st1" d="M229.4,122.5h0.5v1.5h-0.5V122.5z M229.9,122h2v0.5h-2V122z M229.9,124.5V124h1.5v-0.5h-0.5V123h1v1.5H229.9z"
		/>
</g>
<g>
	<polygon class="st1" points="232.4,124.5 232.4,122 234.9,122 234.9,122.5 232.9,122.5 232.9,123 234.9,123 234.9,123.5 
		232.9,123.5 232.9,124.5 	"/>
</g>
<g>
	<path class="st1" d="M235.4,124h0.5v0.5h-0.5V124z M235.9,124v-0.5h0.5V123h0.5v0.5h0.5V123h-0.5v-0.5h0.5V122h0.5v2.5h-0.5V124
		H235.9z"/>
</g>
<g>
	<path class="st1" d="M238.4,122h0.5v2h-0.5V122z M238.9,124h1.5v0.5h-1.5V124z M240.4,122h0.5v2h-0.5V122z"/>
</g>
<g>
	<polygon class="st1" points="241.4,124.5 241.4,122 241.9,122 241.9,124 243.9,124 243.9,124.5 	"/>
</g>
<g>
	<polygon class="st1" points="244.4,122.5 244.4,122 246.9,122 246.9,122.5 245.9,122.5 245.9,124.5 245.4,124.5 245.4,122.5 	"/>
</g>
<g>
	<polygon class="st0" points="0,151.8 0,146.8 1,146.8 1,150.8 5.1,150.8 5.1,151.8 	"/>
</g>
<g>
	<polygon class="st0" points="6.1,151.8 6.1,146.8 11.2,146.8 11.2,147.8 7.1,147.8 7.1,148.8 11.2,148.8 11.2,149.8 7.1,149.8 
		7.1,150.8 11.2,150.8 11.2,151.8 	"/>
</g>
<g>
	<path class="st0" d="M12.2,151.8v-5.1h1v3h1v1h-1v1H12.2z M14.2,148.8h1v1h-1V148.8z M15.2,147.8h1v1h-1V147.8z M16.2,146.8h1v1h-1
		V146.8z"/>
</g>
<g>
	<polygon class="st0" points="18.2,151.8 18.2,146.8 23.3,146.8 23.3,147.8 19.3,147.8 19.3,148.8 23.3,148.8 23.3,149.8 
		19.3,149.8 19.3,150.8 23.3,150.8 23.3,151.8 	"/>
</g>
<g>
	<polygon class="st0" points="24.3,151.8 24.3,146.8 25.3,146.8 25.3,150.8 29.4,150.8 29.4,151.8 	"/>
</g>
<g>
	<polygon class="st0" points="32.4,148.8 32.4,147.8 33.4,147.8 33.4,146.8 34.5,146.8 34.5,151.8 33.4,151.8 33.4,148.8 	"/>
</g>
<g>
	<path class="st1" d="M101.8,110.7h0.2v0.2h-0.2V110.7z M102,110.7v-0.2h0.2v-0.2h0.2v0.2h0.2v-0.2h-0.2V110h0.2v-0.2h0.2v1.1h-0.2
		v-0.2H102z"/>
</g>
<g>
	<path class="st1" d="M103,110h0.2v0.6H103V110z M103.2,109.8h0.8v0.2h-0.8V109.8z M103.2,110.7h0.8v0.2h-0.8V110.7z"/>
</g>
<g>
	<path class="st1" d="M104.3,110h0.2v0.6h-0.2V110z M104.5,109.8h0.8v0.2h-0.8V109.8z M104.5,110.7h0.8v0.2h-0.8V110.7z"/>
</g>
<g>
	<polygon class="st1" points="105.5,110.9 105.5,109.8 106.5,109.8 106.5,110 105.7,110 105.7,110.2 106.5,110.2 106.5,110.5 
		105.7,110.5 105.7,110.7 106.5,110.7 106.5,110.9 	"/>
</g>
<g>
	<path class="st1" d="M106.8,110h0.2v0.2h-0.2V110z M106.8,110.7h0.8v0.2h-0.8V110.7z M107,109.8h0.8v0.2H107V109.8z M107,110.2h0.6
		v0.2H107V110.2z M107.6,110.5h0.2v0.2h-0.2V110.5z"/>
</g>
<g>
	<path class="st1" d="M108,110h0.2v0.2H108V110z M108,110.7h0.8v0.2H108V110.7z M108.2,109.8h0.8v0.2h-0.8V109.8z M108.2,110.2h0.6
		v0.2h-0.6V110.2z M108.8,110.5h0.2v0.2h-0.2V110.5z"/>
</g>
<g>
	<polygon class="st1" points="101.8,112.3 101.8,111.3 102,111.3 102,112.1 102.7,112.1 102.7,112.3 	"/>
</g>
<g>
	<polygon class="st1" points="102.9,112.3 102.9,111.3 103.9,111.3 103.9,111.5 103.1,111.5 103.1,111.7 103.9,111.7 103.9,111.9 
		103.1,111.9 103.1,112.1 103.9,112.1 103.9,112.3 	"/>
</g>
<g>
	<path class="st1" d="M104.1,112.3v-1h0.2v0.6h0.2v0.2h-0.2v0.2H104.1z M104.4,111.7h0.2v0.2h-0.2V111.7z M104.6,111.5h0.2v0.2h-0.2
		V111.5z M104.8,111.3h0.2v0.2h-0.2V111.3z"/>
</g>
<g>
	<polygon class="st1" points="105.2,112.3 105.2,111.3 106.2,111.3 106.2,111.5 105.4,111.5 105.4,111.7 106.2,111.7 106.2,111.9 
		105.4,111.9 105.4,112.1 106.2,112.1 106.2,112.3 	"/>
</g>
<g>
	<polygon class="st1" points="106.4,112.3 106.4,111.3 106.5,111.3 106.5,112.1 107.3,112.1 107.3,112.3 	"/>
</g>
<g>
	<path class="st1" d="M107.9,111.5h0.2v0.2h-0.2V111.5z M108.1,111.3h0.6v0.2h-0.6V111.3z M108.1,112.3v-0.2h0.2v-0.2h0.2v0.2h0.4
		v0.2H108.1z M108.5,111.7h0.2v0.2h-0.2V111.7z M108.6,111.5h0.2v0.2h-0.2V111.5z"/>
</g>
<g class="st3">
	<g>
		<defs>
			<rect id="SVGID_1_" x="26.5" y="20.4" width="42.7" height="88.1"/>
		</defs>
		<clipPath id="SVGID_2_">
			<use xlink:href="#SVGID_1_"  style="overflow:visible;"/>
		</clipPath>
		<g class="st4">
			<rect x="26.5" y="20.4" class="st0" width="42.7" height="88.1"/>
		</g>
	</g>
</g>
<g>
	<path class="st1" d="M36.8,64v-3.9H40v0.8h-2.3v0.8H40v0.8h-2.3v0.8H40V64H36.8z M40,60.9h0.8v0.8H40V60.9z M40,62.4h0.8v0.8H40
		V62.4z"/>
</g>
<g>
	<path class="st1" d="M41.5,64v-3.9h3.1v0.8h-2.3v1.6h2.3v0.8h-2.3V64H41.5z M44.6,60.9h0.8v1.6h-0.8V60.9z M44.6,63.2h0.8V64h-0.8
		V63.2z"/>
</g>
<g>
	<rect x="46.2" y="60.1" class="st1" width="0.8" height="3.9"/>
</g>
<g>
	<path class="st1" d="M47.8,60.9h0.8v2.3h-0.8V60.9z M48.5,60.1h3.1v0.8h-3.1V60.1z M48.5,64v-0.8h2.3v-0.8h-0.8v-0.8h1.6V64H48.5z"
		/>
</g>
<g>
	<polygon class="st1" points="52.4,64 52.4,60.1 53.2,60.1 53.2,61.7 55.6,61.7 55.6,60.1 56.3,60.1 56.3,64 55.6,64 55.6,62.4 
		53.2,62.4 53.2,64 	"/>
</g>
<g>
	<polygon class="st1" points="58.7,64 58.7,60.9 57.1,60.9 57.1,60.1 61,60.1 61,60.9 59.5,60.9 59.5,64 	"/>
</g>
<g>
	<path class="st1" d="M36.8,67.1h0.8v0.8h-0.8V67.1z M36.8,69.5H40v0.8h-3.1V69.5z M37.6,66.3h3.1v0.8h-3.1V66.3z M37.6,67.9H40v0.8
		h-2.3V67.9z M40,68.7h0.8v0.8H40V68.7z"/>
</g>
<g>
	<polygon class="st1" points="43.1,70.2 43.1,67.1 41.5,67.1 41.5,66.3 45.4,66.3 45.4,67.1 43.9,67.1 43.9,70.2 	"/>
</g>
<g>
	<path class="st1" d="M46.2,69.5H47v0.8h-0.8V69.5z M49.3,70.2v-0.8H47v-0.8h0.8v-0.8h0.8v0.8h0.8v-0.8h-0.8v-0.8h0.8v-0.8h0.8v3.9
		H49.3z"/>
</g>
<g>
	<path class="st1" d="M50.9,67.1h0.8v2.3h-0.8V67.1z M51.7,66.3h3.1v0.8h-3.1V66.3z M51.7,70.2v-0.8H54v-0.8h-0.8v-0.8h1.6v2.3H51.7
		z"/>
</g>
<g>
	<polygon class="st1" points="55.6,70.2 55.6,66.3 59.5,66.3 59.5,67.1 56.3,67.1 56.3,67.9 59.5,67.9 59.5,68.7 56.3,68.7 
		56.3,69.5 59.5,69.5 59.5,70.2 	"/>
</g>
<g>
	<path class="st1" d="M92,60.6h1v4.1h-1V60.6z M93,64.6h1v1h-1V64.6z M94,60.6h1v4.1h-1V60.6z M95.1,64.6h1v1h-1V64.6z M96.1,60.6h1
		v4.1h-1V60.6z"/>
</g>
<g>
	<path class="st1" d="M98.1,61.6h1v3h-1V61.6z M99.2,60.6h3.1v1h-3.1V60.6z M99.2,64.6h3.1v1h-3.1V64.6z M102.3,61.6h1v3h-1V61.6z"
		/>
</g>
<g>
	<path class="st1" d="M104.3,65.7v-5.1h4.1v1h-3.1v2h3.1v1h-3.1v1H104.3z M108.4,61.6h1v2h-1V61.6z M108.4,64.6h1v1h-1V64.6z"/>
</g>
<g>
	<path class="st1" d="M110.5,65.7v-5.1h1v2h1v1h-1v2H110.5z M112.5,61.6h1v1h-1V61.6z M112.5,63.6h1v1h-1V63.6z M113.6,60.6h1v1h-1
		V60.6z M113.6,64.6h1v1h-1V64.6z"/>
</g>
<g>
	<path class="st1" d="M117.7,64.6h1v1h-1V64.6z M121.8,65.7v-1h-3.1v-1h1v-1h1v1h1v-1h-1v-1h1v-1h1v5.1H121.8z"/>
</g>
<g>
	<path class="st1" d="M123.8,65.7v-5.1h4.1v1h-3.1v2h3.1v1h-3.1v1H123.8z M127.9,61.6h1v2h-1V61.6z M127.9,64.6h1v1h-1V64.6z"/>
</g>
<g>
	<polygon class="st1" points="130,65.7 130,60.6 135.1,60.6 135.1,61.6 131,61.6 131,62.6 135.1,62.6 135.1,63.6 131,63.6 131,64.6 
		135.1,64.6 135.1,65.7 	"/>
</g>
<g>
	<path class="st1" d="M136.2,64.6h1v1h-1V64.6z M140.3,65.7v-1h-3.1v-1h1v-1h1v1h1v-1h-1v-1h1v-1h1v5.1H140.3z"/>
</g>
<g>
	<path class="st1" d="M129.9,122.1h0.7v0.7h-0.7V122.1z M129.9,124.3h2.9v0.7h-2.9V124.3z M130.6,121.4h2.9v0.7h-2.9V121.4z
		 M130.6,122.8h2.2v0.7h-2.2V122.8z M132.8,123.5h0.7v0.7h-0.7V123.5z"/>
</g>
<g>
	<polygon class="st1" points="135.7,125 135.7,122.1 134.2,122.1 134.2,121.4 137.8,121.4 137.8,122.1 136.4,122.1 136.4,125 	"/>
</g>
<g>
	<path class="st1" d="M138.5,124.3h0.7v0.7h-0.7V124.3z M141.4,125v-0.7h-2.2v-0.7h0.7v-0.7h0.7v0.7h0.7v-0.7h-0.7v-0.7h0.7v-0.7
		h0.7v3.6H141.4z"/>
</g>
<g>
	<path class="st1" d="M142.9,122.1h0.7v2.1h-0.7V122.1z M143.6,121.4h2.9v0.7h-2.9V121.4z M143.6,125v-0.7h2.2v-0.7H145v-0.7h1.4
		v2.1H143.6z"/>
</g>
<g>
	<polygon class="st1" points="147.2,125 147.2,121.4 150.8,121.4 150.8,122.1 147.9,122.1 147.9,122.8 150.8,122.8 150.8,123.5 
		147.9,123.5 147.9,124.3 150.8,124.3 150.8,125 	"/>
</g>
<g>
	<path class="st1" d="M81.2,131.1h0.7v2.1h-0.7V131.1z M81.9,130.4h2.9v0.7h-2.9V130.4z M81.9,133.2h2.9v0.7h-2.9V133.2z"/>
</g>
<g>
	<polygon class="st1" points="85.5,133.9 85.5,130.4 86.2,130.4 86.2,131.8 88.4,131.8 88.4,130.4 89.1,130.4 89.1,133.9 
		88.4,133.9 88.4,132.5 86.2,132.5 86.2,133.9 	"/>
</g>
<g>
	<polygon class="st1" points="89.8,133.9 89.8,130.4 93.4,130.4 93.4,131.1 90.5,131.1 90.5,131.8 93.4,131.8 93.4,132.5 
		90.5,132.5 90.5,133.2 93.4,133.2 93.4,133.9 	"/>
</g>
<g>
	<path class="st1" d="M94.1,131.1h0.7v2.1h-0.7V131.1z M94.8,130.4h2.9v0.7h-2.9V130.4z M94.8,133.2h2.9v0.7h-2.9V133.2z"/>
</g>
<g>
	<path class="st1" d="M98.4,133.9v-3.6h0.7v1.4h0.7v0.7h-0.7v1.4H98.4z M99.9,131.1h0.7v0.7h-0.7V131.1z M99.9,132.5h0.7v0.7h-0.7
		V132.5z M100.6,130.4h0.7v0.7h-0.7V130.4z M100.6,133.2h0.7v0.7h-0.7V133.2z"/>
</g>
<g>
	<rect x="103.5" y="130.4" class="st1" width="0.7" height="3.5"/>
</g>
<g>
	<path class="st1" d="M104.9,133.9v-3.6h0.7v0.7h0.7v0.7h-0.7v2.1H104.9z M106.4,131.8h0.7v0.7h-0.7V131.8z M107.8,133.9v-0.7h-0.7
		v-0.7h0.7v-2.1h0.7v3.6H107.8z"/>
</g>
<g>
	<path class="st1" d="M32.8,124.4V121h2.8v0.7h-2.1v0.7h2.1v0.7h-2.1v0.7h2.1v0.7H32.8z M35.6,121.6h0.7v0.7h-0.7V121.6z M35.6,123
		h0.7v0.7h-0.7V123z"/>
</g>
<g>
	<path class="st1" d="M37,123.7h0.7v0.7H37V123.7z M39.8,124.4v-0.7h-2.1V123h0.7v-0.7h0.7v0.7h0.7v-0.7h-0.7v-0.7h0.7V121h0.7v3.4
		H39.8z"/>
</g>
<g>
	<path class="st1" d="M41.1,121.6h0.7v2h-0.7V121.6z M41.8,121h2.8v0.7h-2.8V121z M41.8,123.7h2.8v0.7h-2.8V123.7z"/>
</g>
<g>
	<path class="st1" d="M45.3,124.4V121H46v1.4h0.7v0.7H46v1.4H45.3z M46.7,121.6h0.7v0.7h-0.7V121.6z M46.7,123h0.7v0.7h-0.7V123z
		 M47.4,121h0.7v0.7h-0.7V121z M47.4,123.7h0.7v0.7h-0.7V123.7z"/>
</g>
<g>
	<polygon class="st1" points="48.7,124.4 48.7,121 52.2,121 52.2,121.6 49.4,121.6 49.4,122.3 52.2,122.3 52.2,123 49.4,123 
		49.4,123.7 52.2,123.7 52.2,124.4 	"/>
</g>
<g>
	<path class="st1" d="M52.9,124.4V121h2.8v0.7h-2.1v1.4h2.1v0.7h-2.1v0.7H52.9z M55.7,121.6h0.7v1.4h-0.7V121.6z M55.7,123.7h0.7
		v0.7h-0.7V123.7z"/>
</g>
<g>
	<path class="st1" d="M57,121.6h0.7v0.7H57V121.6z M57,123.7h2.8v0.7H57V123.7z M57.7,121h2.8v0.7h-2.8V121z M57.7,122.3h2.1v0.7
		h-2.1V122.3z M59.8,123h0.7v0.7h-0.7V123z"/>
</g>
<g>
	<path class="st1" d="M38.7,129.1h0.7v0.7h-0.7V129.1z M41.5,129.8v-0.7h-2.1v-0.7h0.7v-0.7h0.7v0.7h0.7v-0.7h-0.7v-0.7h0.7v-0.7
		h0.7v3.4H41.5z"/>
</g>
<g>
	<path class="st1" d="M42.9,129.8v-3.4h2.8v0.7h-2.1v1.4h2.1v0.7h-2.1v0.7H42.9z M45.6,127.1h0.7v1.4h-0.7V127.1z M45.6,129.1h0.7
		v0.7h-0.7V129.1z"/>
</g>
<g>
	<polygon class="st1" points="47,129.8 47,126.4 50.5,126.4 50.5,127.1 47.7,127.1 47.7,127.8 50.5,127.8 50.5,128.5 47.7,128.5 
		47.7,129.1 50.5,129.1 50.5,129.8 	"/>
</g>
<g>
	<path class="st1" d="M51.2,129.1h0.7v0.7h-0.7V129.1z M53.9,129.8v-0.7h-2.1v-0.7h0.7v-0.7h0.7v0.7h0.7v-0.7h-0.7v-0.7h0.7v-0.7
		h0.7v3.4H53.9z"/>
</g>
<g>
	<path class="st0" d="M113.9,106.3H98.7v2.2h13V121h11.5v-12.4h14.4v-2.2h-16.7H113.9z M120.9,118.7h-7v-10.2h7V118.7z"/>
</g>
<g>
	<path class="st0" d="M68.2,106.3H51.5v2.2h14.4V121h11.4v-12.4h13.1v-2.2H75.1H68.2z M75.1,118.7h-6.9v-10.2h6.9V118.7z"/>
</g>
<g>
	<path class="st1" d="M172.2,88.7h0.8v3.2h-0.8V88.7z M173,91.9h0.8v0.8H173V91.9z M173.8,88.7h0.8v3.2h-0.8V88.7z M174.6,91.9h0.8
		v0.8h-0.8V91.9z M175.4,88.7h0.8v3.2h-0.8V88.7z"/>
</g>
<g>
	<path class="st1" d="M177,89.5h0.8v2.4H177V89.5z M177.8,88.7h3.2v0.8h-3.2V88.7z M177.8,91.9h3.2v0.8h-3.2V91.9z"/>
</g>
<g>
	<polygon class="st1" points="173.6,97 172.9,97 172.1,97 172.1,97.7 172.1,98.4 172.1,99.2 172.1,99.9 172.9,99.9 172.9,100.7 
		172.9,101.4 173.6,101.4 174.3,101.4 174.3,100.7 174.3,99.9 175.1,99.9 175.1,99.2 175.1,98.4 175.1,97.7 175.1,97 174.3,97 	"/>
</g>
<g>
	<polygon class="st1" points="174.3,96.2 174.3,95.5 174.3,94.7 173.6,94.7 172.9,94.7 172.9,95.5 172.9,96.2 173.6,96.2 	"/>
</g>
<g>
	<polygon class="st1" points="179.7,96.2 179.7,95.5 179.7,94.7 179,94.7 178.3,94.7 178.3,95.5 178.3,96.2 179,96.2 	"/>
</g>
<g>
	<polygon class="st1" points="180.5,99.2 180.5,98.4 180.5,97.7 179.7,97.7 179.7,97 179,97 178.3,97 178.3,97.7 177.5,97.7 
		177.5,98.4 177.5,99.2 176.8,99.2 176.8,99.9 176.8,100.7 177.5,100.7 178.3,100.7 178.3,101.4 179,101.4 179.7,101.4 179.7,100.7 
		180.5,100.7 181.2,100.7 181.2,99.9 181.2,99.2 	"/>
</g>
<g>
	<polygon class="st2" points="73.1,112.3 72.6,112.3 72.6,112.9 72.6,113.3 72.2,113.3 71.6,113.3 71.6,113.9 71.6,114.2 
		71.2,114.2 71.2,114.2 70.6,114.2 70.6,114.2 70.6,114.8 70.6,115.2 70.2,115.2 69.6,115.2 69.6,115.8 69.6,116.8 70.2,116.8 
		70.2,115.8 70.6,115.8 70.6,115.8 71.1,115.8 71.2,115.8 71.2,115.8 71.2,114.8 71.6,114.8 72.1,114.8 72.1,114.8 72.2,114.8 
		72.2,113.9 72.6,113.9 73.1,113.9 73.1,113.9 73.1,112.9 74.1,112.9 74.1,112.3 	"/>
</g>
<g>
	<polygon class="st1" points="70.2,113.4 70.4,113.2 70.2,113 70.4,112.9 70.2,112.7 70,112.9 69.8,112.7 69.6,112.9 69.5,112.7 
		69.3,112.9 69.5,113 69.6,113.2 69.8,113.4 70,113.6 70.2,113.8 70.4,113.6 	"/>
</g>
<g>
	<polygon class="st2" points="119.1,112.3 118.6,112.3 118.6,112.9 118.6,113.3 118.2,113.3 117.6,113.3 117.6,113.9 117.6,114.2 
		117.2,114.2 117.2,114.2 116.6,114.2 116.6,114.2 116.6,114.8 116.6,115.2 116.2,115.2 115.6,115.2 115.6,115.8 115.6,116.8 
		116.2,116.8 116.2,115.8 116.6,115.8 116.6,115.8 117.1,115.8 117.2,115.8 117.2,115.8 117.2,114.8 117.6,114.8 118.1,114.8 
		118.1,114.8 118.2,114.8 118.2,113.9 118.6,113.9 119.1,113.9 119.1,113.9 119.1,112.9 120.1,112.9 120.1,112.3 	"/>
</g>
<g>
	<polygon class="st1" points="116.2,113.4 116.4,113.2 116.2,113 116.4,112.9 116.2,112.7 116,112.9 115.8,112.7 115.6,112.9 
		115.5,112.7 115.3,112.9 115.5,113 115.6,113.2 115.8,113.4 116,113.6 116.2,113.8 116.4,113.6 	"/>
</g>
<g>
	<path class="st1" d="M4.8,91.5h0.6v0.6H4.8V91.5z M4.8,93.4h2.6V94H4.8V93.4z M5.4,90.8H8v0.6H5.4V90.8z M5.4,92.1h2v0.6h-2V92.1z
		 M7.4,92.8H8v0.6H7.4V92.8z"/>
</g>
<g>
	<polygon class="st1" points="10,94 10,91.5 8.7,91.5 8.7,90.8 11.9,90.8 11.9,91.5 10.6,91.5 10.6,94 	"/>
</g>
<g>
	<path class="st1" d="M12.6,93.4h0.7V94h-0.7V93.4z M15.2,94v-0.6h-2v-0.6h0.6v-0.6h0.7v0.6h0.6v-0.6h-0.6v-0.6h0.6v-0.6h0.7V94
		H15.2z"/>
</g>
<g>
	<path class="st1" d="M16.5,91.5h0.6v1.9h-0.6V91.5z M17.1,90.8h2.6v0.6h-2.6V90.8z M17.1,94v-0.6h2v-0.6h-0.7v-0.6h1.3V94H17.1z"/>
</g>
<g>
	<polygon class="st1" points="20.4,94 20.4,90.8 23.6,90.8 23.6,91.5 21,91.5 21,92.1 23.6,92.1 23.6,92.8 21,92.8 21,93.4 
		23.6,93.4 23.6,94 	"/>
</g>
<g>
	<path class="st1" d="M4.6,99.2V96h2.6v0.6h-2v0.6h2v0.6h-2v0.6h2v0.6H4.6z M7.2,96.6h0.6v0.6H7.2V96.6z M7.2,97.9h0.6v0.6H7.2V97.9
		z"/>
</g>
<g>
	<polygon class="st1" points="8.5,99.2 8.5,96 11.8,96 11.8,96.6 9.2,96.6 9.2,97.3 11.8,97.3 11.8,97.9 9.2,97.9 9.2,98.5 
		11.8,98.5 11.8,99.2 	"/>
</g>
<g>
	<polygon class="st1" points="13.7,99.2 13.7,96.6 12.4,96.6 12.4,96 15.7,96 15.7,96.6 14.4,96.6 14.4,99.2 	"/>
</g>
<g>
	<path class="st1" d="M16.3,98.5H17v0.6h-0.7V98.5z M18.9,99.2v-0.6h-2v-0.6h0.6v-0.6h0.7v0.6h0.6v-0.6h-0.6v-0.6h0.6V96h0.7v3.2
		H18.9z"/>
</g>
<g>
	<rect x="21.7" y="97.6" class="st1" width="1.3" height="0.3"/>
</g>
<g>
	<rect x="23.5" y="95.7" class="st1" width="0.5" height="3.5"/>
</g>
<g>
	<polygon class="st1" points="82.6,150.9 82.6,148.2 85.2,148.2 85.2,148.7 83.1,148.7 83.1,149.3 85.2,149.3 85.2,149.8 
		83.1,149.8 83.1,150.3 85.2,150.3 85.2,150.9 	"/>
</g>
<g>
	<path class="st1" d="M87.4,150.3v-0.5h0.5v-1.6h0.5v2.7h-0.5v-0.5H87.4z M86.8,149.3h0.5v0.5h-0.5V149.3z M85.8,150.9v-2.7h0.5v0.5
		h0.5v0.5h-0.5v1.6H85.8z"/>
</g>
<g>
	<polygon class="st1" points="89,148.7 89,148.2 91.6,148.2 91.6,148.7 90.6,148.7 90.6,150.9 90,150.9 90,148.7 	"/>
</g>
<g>
	<path class="st1" d="M94.3,150.3h0.5v0.5h-0.5V150.3z M94.3,148.7h0.5v1.1h-0.5V148.7z M92.2,150.9v-2.7h2.1v0.5h-1.6v1.1h1.6v0.5
		h-1.6v0.5H92.2z"/>
</g>
<g>
	<path class="st1" d="M95.9,150.3v-0.5h0.5v-0.5H97v0.5h0.5v-0.5H97v-0.5h0.5v-0.5H98v2.7h-0.5v-0.5H95.9z M95.4,150.3h0.5v0.5h-0.5
		V150.3z"/>
</g>
<g>
	<path class="st1" d="M100.2,150.3v-0.5h0.5v-1.6h0.5v2.7h-0.5v-0.5H100.2z M99.6,149.3h0.5v0.5h-0.5V149.3z M98.6,150.9v-2.7h0.5
		v0.5h0.5v0.5h-0.5v1.6H98.6z"/>
</g>
<g>
	<path class="st1" d="M102.3,150.3h2.1v0.5h-2.1V150.3z M102.3,148.2h2.1v0.5h-2.1V148.2z M101.8,148.7h0.5v1.6h-0.5V148.7z"/>
</g>
<g>
	<polygon class="st1" points="105,150.9 105,148.2 107.6,148.2 107.6,148.7 105.5,148.7 105.5,149.3 107.6,149.3 107.6,149.8 
		105.5,149.8 105.5,150.3 107.6,150.3 107.6,150.9 	"/>
</g>
<g>
	<polygon class="st1" points="96.4,144.3 96.4,143.4 95.6,143.4 95.6,142.5 94.7,142.5 94.7,143.4 93.8,143.4 93.8,144.3 
		92.9,144.3 92.9,145.1 93.8,145.1 94.7,145.1 95.6,145.1 96.4,145.1 97.3,145.1 97.3,144.3 	"/>
</g>
<g>
	<polygon class="st1" points="159,95.3 159.8,95.3 159.8,94.5 160.7,94.5 160.7,93.6 159.8,93.6 159.8,92.7 159,92.7 159,91.9 
		158.1,91.9 158.1,92.7 158.1,93.6 158.1,94.5 158.1,95.3 158.1,96.2 159,96.2 	"/>
</g>
<g>
	<polygon class="st1" points="110.4,111 110.7,111 110.7,110.7 111,110.7 111,110.4 110.7,110.4 110.7,110.1 110.4,110.1 
		110.4,109.8 110.1,109.8 110.1,110.1 110.1,110.4 110.1,110.7 110.1,111 110.1,111.3 110.4,111.3 	"/>
</g>
<g>
	<path class="st1" d="M79.9,110.7h0.2v0.2h-0.2V110.7z M80.1,110.7v-0.2h0.2v-0.2h0.2v0.2h0.2v-0.2h-0.2V110h0.2v-0.2h0.2v1.1h-0.2
		v-0.2H80.1z"/>
</g>
<g>
	<path class="st1" d="M81.1,110h0.2v0.6h-0.2V110z M81.3,109.8h0.8v0.2h-0.8V109.8z M81.3,110.7h0.8v0.2h-0.8V110.7z"/>
</g>
<g>
	<path class="st1" d="M82.4,110h0.2v0.6h-0.2V110z M82.6,109.8h0.8v0.2h-0.8V109.8z M82.6,110.7h0.8v0.2h-0.8V110.7z"/>
</g>
<g>
	<polygon class="st1" points="83.6,110.9 83.6,109.8 84.7,109.8 84.7,110 83.8,110 83.8,110.2 84.7,110.2 84.7,110.5 83.8,110.5 
		83.8,110.7 84.7,110.7 84.7,110.9 	"/>
</g>
<g>
	<path class="st1" d="M84.9,110h0.2v0.2h-0.2V110z M84.9,110.7h0.8v0.2h-0.8V110.7z M85.1,109.8h0.8v0.2h-0.8V109.8z M85.1,110.2
		h0.6v0.2h-0.6V110.2z M85.7,110.5h0.2v0.2h-0.2V110.5z"/>
</g>
<g>
	<path class="st1" d="M86.1,110h0.2v0.2h-0.2V110z M86.1,110.7h0.8v0.2h-0.8V110.7z M86.3,109.8h0.8v0.2h-0.8V109.8z M86.3,110.2
		h0.6v0.2h-0.6V110.2z M86.9,110.5h0.2v0.2h-0.2V110.5z"/>
</g>
<g>
	<polygon class="st1" points="79.9,112.3 79.9,111.3 80.1,111.3 80.1,112.1 80.8,112.1 80.8,112.3 	"/>
</g>
<g>
	<polygon class="st1" points="81,112.3 81,111.3 82,111.3 82,111.5 81.2,111.5 81.2,111.7 82,111.7 82,111.9 81.2,111.9 81.2,112.1 
		82,112.1 82,112.3 	"/>
</g>
<g>
	<path class="st1" d="M82.2,112.3v-1h0.2v0.6h0.2v0.2h-0.2v0.2H82.2z M82.6,111.7h0.2v0.2h-0.2V111.7z M82.8,111.5h0.2v0.2h-0.2
		V111.5z M82.9,111.3h0.2v0.2h-0.2V111.3z"/>
</g>
<g>
	<polygon class="st1" points="83.3,112.3 83.3,111.3 84.3,111.3 84.3,111.5 83.5,111.5 83.5,111.7 84.3,111.7 84.3,111.9 
		83.5,111.9 83.5,112.1 84.3,112.1 84.3,112.3 	"/>
</g>
<g>
	<polygon class="st1" points="84.5,112.3 84.5,111.3 84.7,111.3 84.7,112.1 85.4,112.1 85.4,112.3 	"/>
</g>
<g>
	<path class="st1" d="M86,111.5h0.2v0.2H86V111.5z M86.2,111.3h0.6v0.2h-0.6V111.3z M86.2,112.3v-0.2h0.2v-0.2h0.2v0.2H87v0.2H86.2z
		 M86.6,111.7h0.2v0.2h-0.2V111.7z M86.8,111.5H87v0.2h-0.2V111.5z"/>
</g>
<g>
	<polygon class="st1" points="78.8,110.1 78.5,110.1 78.5,110.4 78.2,110.4 78.2,110.7 78.5,110.7 78.5,111 78.8,111 78.8,111.3 
		79.1,111.3 79.1,111 79.1,110.7 79.1,110.4 79.1,110.1 79.1,109.8 78.8,109.8 	"/>
</g>
<g>
	<polygon class="st1" points="159,60.5 159.8,60.5 159.8,59.6 160.7,59.6 160.7,58.7 159.8,58.7 159.8,57.9 159,57.9 159,57 
		158.1,57 158.1,57.9 158.1,58.7 158.1,59.6 158.1,60.5 158.1,61.4 159,61.4 	"/>
</g>
<g>
	<polygon class="st1" points="159,35.7 159.8,35.7 159.8,34.8 160.7,34.8 160.7,34 159.8,34 159.8,33.1 159,33.1 159,32.2 
		158.1,32.2 158.1,33.1 158.1,34 158.1,34.8 158.1,35.7 158.1,36.6 159,36.6 	"/>
</g>
<g>
	<polygon class="st1" points="15.5,111.1 15.5,110.2 14.6,110.2 14.6,109.4 13.7,109.4 13.7,110.2 12.9,110.2 12.9,111.1 12,111.1 
		12,112 12.9,112 13.7,112 14.6,112 15.5,112 16.3,112 16.3,111.1 	"/>
</g>
<g>
	<polygon class="st0" points="162.6,20.4 162.6,20.4 162.5,20.4 162.5,0 126.2,0 123.7,0 117,0 117,20.4 26.5,20.4 26.5,80.6 
		0,80.6 0,106.3 0,108.5 0,141.2 26.5,141.2 28.8,141.2 65.9,141.2 68.2,141.2 75.1,141.2 77.4,141.2 90.4,141.2 90.4,139 77.4,139 
		77.4,127 77.3,127 77.3,126.9 65.9,126.9 65.9,127 65.9,139 28.8,139 28.8,128.1 26.5,128.1 26.5,139 2.2,139 2.2,108.5 
		10.2,108.5 10.2,106.3 2.2,106.3 2.2,82.8 26.5,82.8 26.5,106.3 18.5,106.3 18.5,108.5 26.5,108.5 26.5,119.8 28.8,119.8 
		28.8,108.5 43.2,108.5 43.2,106.3 28.8,106.3 28.8,80.6 28.8,22.6 67,22.6 126.2,22.6 141.7,22.6 141.7,22.5 141.7,20.4 
		141.7,20.2 126.2,20.2 123.7,20.2 123.7,20.4 119.3,20.4 119.3,2.2 123.7,2.2 126.2,2.2 141.7,2.2 160.3,2.2 160.3,20.2 150,20.2 
		150,20.4 150,22.5 150,22.6 160.3,22.6 160.3,30 162.6,30 162.6,22.7 188,22.7 188,48.8 162.6,48.8 162.6,38.3 160.3,38.3 
		160.3,48.9 160.3,51 160.3,54.1 162.6,54.1 162.6,51.1 188,51.1 188,65.4 162.6,65.4 162.6,62.4 160.3,62.4 160.3,67.6 160.3,79.4 
		160.3,79.4 160.3,89.8 160.3,89.8 162.6,89.8 162.6,89.8 162.6,81.6 188,81.6 188,106.3 162.6,106.3 162.6,98.1 162.6,98.1 
		160.3,98.1 160.3,98.1 160.3,106.3 145.9,106.3 145.9,108.5 160.3,108.5 160.3,108.5 160.3,139 123.1,139 123.1,126.9 111.7,126.9 
		111.7,127 111.7,127 111.7,139 98.7,139 98.7,141.2 111.7,141.2 113.9,141.2 120.9,141.2 123.1,141.2 162.6,141.2 162.6,108.5 
		190.2,108.5 190.2,79.4 162.6,79.4 162.6,67.6 190.2,67.6 190.2,51 190.2,48.9 190.2,20.4 	"/>
</g>
<g>
	<path class="st1" d="M164.5,60.1L164,58h0.3l0.3,1.1c0.1,0.3,0.1,0.5,0.2,0.7h0c0-0.2,0.1-0.5,0.2-0.7l0.3-1.1h0.3l0.3,1.1
		c0.1,0.3,0.1,0.5,0.1,0.7h0c0-0.2,0.1-0.5,0.2-0.7l0.3-1.1h0.3l-0.6,2.1h-0.3l-0.3-1.1c-0.1-0.3-0.1-0.5-0.1-0.7h0
		c0,0.2-0.1,0.4-0.2,0.7l-0.3,1.1H164.5z"/>
	<path class="st1" d="M168.7,59c0,0.7-0.4,1.1-1,1.1c-0.6,0-1-0.4-1-1.1c0-0.7,0.4-1.1,1-1.1C168.3,57.9,168.7,58.4,168.7,59z
		 M167,59c0,0.5,0.2,0.9,0.7,0.9c0.4,0,0.7-0.4,0.7-0.9c0-0.4-0.2-0.9-0.7-0.9C167.2,58.2,167,58.6,167,59z"/>
	<path class="st1" d="M169,58c0.1,0,0.3,0,0.5,0c0.3,0,0.5,0.1,0.6,0.2c0.1,0.1,0.2,0.2,0.2,0.4c0,0.3-0.2,0.5-0.4,0.5v0
		c0.2,0.1,0.3,0.2,0.3,0.4c0.1,0.3,0.1,0.5,0.2,0.6h-0.3c0-0.1-0.1-0.2-0.1-0.5c-0.1-0.3-0.2-0.4-0.4-0.4h-0.3v0.9H169V58z
		 M169.3,59h0.3c0.3,0,0.5-0.2,0.5-0.4c0-0.3-0.2-0.4-0.5-0.4c-0.1,0-0.2,0-0.3,0V59z"/>
	<path class="st1" d="M170.7,58h0.3v1h0c0.1-0.1,0.1-0.2,0.2-0.2l0.6-0.8h0.3l-0.8,0.9l0.8,1.2h-0.3l-0.7-1l-0.2,0.2v0.8h-0.3V58z"
		/>
	<path class="st1" d="M172.4,59.8c0.1,0.1,0.3,0.1,0.5,0.1c0.3,0,0.4-0.1,0.4-0.4c0-0.2-0.1-0.3-0.4-0.4c-0.3-0.1-0.6-0.3-0.6-0.6
		c0-0.3,0.3-0.6,0.7-0.6c0.2,0,0.4,0.1,0.5,0.1l-0.1,0.2c-0.1,0-0.2-0.1-0.4-0.1c-0.3,0-0.4,0.2-0.4,0.3c0,0.2,0.1,0.3,0.4,0.4
		c0.4,0.1,0.5,0.3,0.5,0.6c0,0.3-0.2,0.6-0.7,0.6c-0.2,0-0.4-0.1-0.5-0.1L172.4,59.8z"/>
	<path class="st1" d="M174.2,58v0.9h1V58h0.3v2.1h-0.3v-1h-1v1h-0.3V58H174.2z"/>
	<path class="st1" d="M177.8,59c0,0.7-0.4,1.1-1,1.1c-0.6,0-1-0.4-1-1.1c0-0.7,0.4-1.1,1-1.1C177.4,57.9,177.8,58.4,177.8,59z
		 M176.2,59c0,0.5,0.2,0.9,0.7,0.9c0.4,0,0.7-0.4,0.7-0.9c0-0.4-0.2-0.9-0.7-0.9C176.4,58.2,176.2,58.6,176.2,59z"/>
	<path class="st1" d="M178.1,58c0.1,0,0.3,0,0.5,0c0.3,0,0.5,0.1,0.6,0.2c0.1,0.1,0.2,0.3,0.2,0.4c0,0.2-0.1,0.3-0.2,0.5
		c-0.1,0.2-0.4,0.2-0.6,0.2c-0.1,0-0.2,0-0.2,0v0.8h-0.3V58z M178.4,59c0.1,0,0.1,0,0.2,0c0.3,0,0.5-0.2,0.5-0.5
		c0-0.3-0.2-0.4-0.5-0.4c-0.1,0-0.2,0-0.3,0V59z"/>
	<path class="st1" d="M179.8,59.8c0.1,0.1,0.3,0.1,0.5,0.1c0.3,0,0.4-0.1,0.4-0.4c0-0.2-0.1-0.3-0.4-0.4c-0.3-0.1-0.6-0.3-0.6-0.6
		c0-0.3,0.3-0.6,0.7-0.6c0.2,0,0.4,0.1,0.5,0.1l-0.1,0.2c-0.1,0-0.2-0.1-0.4-0.1c-0.3,0-0.4,0.2-0.4,0.3c0,0.2,0.1,0.3,0.4,0.4
		c0.4,0.1,0.5,0.3,0.5,0.6c0,0.3-0.2,0.6-0.7,0.6c-0.2,0-0.4-0.1-0.5-0.1L179.8,59.8z"/>
</g>
<g>
	<path class="st1" d="M166.9,33h1.9v0.4h-1.5v1.2h1.4V35h-1.4v1.6h-0.5V33z"/>
	<path class="st1" d="M172.5,34.8c0,1.2-0.8,1.9-1.7,1.9c-0.9,0-1.6-0.7-1.6-1.8c0-1.1,0.7-1.9,1.7-1.9
		C171.9,32.9,172.5,33.7,172.5,34.8z M169.7,34.8c0,0.8,0.4,1.5,1.1,1.5c0.7,0,1.1-0.7,1.1-1.5c0-0.7-0.4-1.5-1.1-1.5
		C170.1,33.3,169.7,34,169.7,34.8z"/>
	<path class="st1" d="M176.2,34.8c0,1.2-0.8,1.9-1.7,1.9c-0.9,0-1.6-0.7-1.6-1.8c0-1.1,0.7-1.9,1.7-1.9
		C175.5,32.9,176.2,33.7,176.2,34.8z M173.4,34.8c0,0.8,0.4,1.5,1.1,1.5c0.7,0,1.2-0.7,1.2-1.5c0-0.7-0.4-1.5-1.1-1.5
		C173.8,33.3,173.4,34,173.4,34.8z"/>
	<path class="st1" d="M176.8,33c0.3,0,0.6-0.1,1-0.1c0.7,0,1.1,0.2,1.5,0.4c0.3,0.3,0.5,0.7,0.5,1.3c0,0.6-0.2,1.1-0.5,1.4
		c-0.3,0.3-0.9,0.5-1.6,0.5c-0.3,0-0.6,0-0.8,0V33z M177.2,36.2c0.1,0,0.3,0,0.5,0c1,0,1.5-0.6,1.5-1.5c0-0.8-0.5-1.4-1.5-1.4
		c-0.2,0-0.4,0-0.5,0V36.2z"/>
</g>
<g>
	<rect x="98.7" y="106.3" class="st0" width="13" height="2.2"/>
</g>
<g>
	<rect x="77.4" y="106.3" class="st0" width="13" height="2.2"/>
</g>
<g>
	<rect x="98.7" y="139" class="st0" width="13" height="2.2"/>
</g>
<g>
	<rect x="111.7" y="106.3" class="st0" width="2.2" height="34.9"/>
</g>
<g>
	<rect x="75.1" y="106.3" class="st0" width="2.2" height="34.9"/>
</g>
<g>
	<rect x="65.9" y="106.3" class="st0" width="2.2" height="34.9"/>
</g>
<g>
	<rect x="120.8" y="106.3" class="st0" width="2.2" height="34.9"/>
</g>
<g>
	<rect x="77.4" y="139" class="st0" width="13" height="2.2"/>
</g>
<g>
	<path class="st1" d="M134.3,129.9v-3.5h0.7v0.7h0.7v0.7H135v2.1H134.3z M135.7,127.8h0.7v0.7h-0.7V127.8z M136.4,129.2v-0.7h0.7
		v-2.1h0.7v3.5h-0.7v-0.7H136.4z"/>
</g>
<g>
	<path class="st1" d="M138.6,127.1h0.7v2.1h-0.7V127.1z M139.3,126.3h2.1v0.7h-2.1V126.3z M139.3,129.2h2.1v0.7h-2.1V129.2z
		 M141.4,127.1h0.7v2.1h-0.7V127.1z"/>
</g>
<g>
	<path class="st1" d="M142.8,127.1h0.7v0.7h-0.7V127.1z M142.8,129.2h2.8v0.7h-2.8V129.2z M143.5,126.3h2.8v0.7h-2.8V126.3z
		 M143.5,127.8h2.1v0.7h-2.1V127.8z M145.7,128.5h0.7v0.7h-0.7V128.5z"/>
</g>
</svg>
